<svg xmlns="http://www.w3.org/2000/svg" width="1024" height="1024"><path fill="#161616" d="M482 119c9.68 9.268 13.716 18.533 14.223 31.84q.055 2.673.09 5.347l.053 2.593c-.006 5.495-.696 9.383-3.366 14.22-3.606 2.43-6.654 3.78-11 3-2.65-1.807-4.556-3.112-6-6-.21-2.9-.375-5.784-.5-8.687-.514-14.394-.514-14.394-7.562-26.563-18.356-10.935-41.83-6.893-61.554-2.044-43.63 11.337-85.523 31.354-123.911 54.789a524 524 0 0 1-6.942 4.142c-21.035 12.462-41.104 26.615-60.354 41.665a819 819 0 0 1-7.683 5.9c-9.932 7.578-19.388 15.507-28.51 24.032a191 191 0 0 1-6.922 6.141 215.6 215.6 0 0 0-23.44 23.73 129 129 0 0 1-3.65 4.07C127.827 315.589 112.353 338.456 106 363l-.526 1.884c-2.62 11.698-1.493 25.778 4.526 36.116 7.223 11.202 17.628 17.986 29.332 23.816l2.087 1.04c7.903 3.875 16.031 7.145 24.206 10.394q2.436.976 4.87 1.956Q177.744 441.114 185 444l19.379 7.722c11.192 4.477 22.296 9.148 33.376 13.894 3.293 1.404 6.592 2.792 9.893 4.177 104.184 43.89 104.184 43.89 132.396 82.484 1.522 2.086 1.522 2.086 3.956 4.723h4v-2a126 126 0 0 1 4.217-2.822c3.16-2.088 6.038-4.536 8.97-6.928 5.192-4.193 10.443-8.241 15.872-12.125 3.683-2.661 7.311-5.391 10.941-8.125a1083 1083 0 0 1 16.39-12.098 660 660 0 0 0 8.11-6.027c10.886-8.186 21.786-16.374 32.996-24.113 3.31-2.329 6.56-4.734 9.817-7.137 6.801-5.011 13.662-9.929 20.687-14.625l2.555-1.75c2.75-1.406 4.407-1.351 7.445-1.25l.326-1.699c1.456-7.435 3.13-14.814 4.834-22.196l.928-4.03q1.23-5.344 2.466-10.687l1.529-6.62c4.6-19.929 9.28-39.834 14.183-59.69 1.39-5.636 2.719-11.283 4.014-16.94 5.104-22.247 10.837-44.322 16.679-66.384 1.47-5.56 2.909-11.126 4.326-16.7 30.191-118.184 30.191-118.184 62.09-137.491 5.382-1.154 10.046-.294 15 2 4.162 3.865 5.691 8.88 6.059 14.453q.034 2.116.004 4.234l-.021 2.334c-1.013 37.727-20.517 76.68-37.413 109.439a374 374 0 0 0-3.223 6.543c-6.068 12.488-12.87 24.452-19.966 36.38a2719 2719 0 0 0-5.495 9.292c-9.113 15.461-9.113 15.461-10.824 17.949-2.093 3.936-3.02 7.97-4.07 12.286l-.73 2.912c-.803 3.223-1.594 6.45-2.384 9.678l-1.712 6.929C552.09 433.239 533.633 516.997 511 625l-.689 3.328c-6.058 29.3-11.672 58.67-16.995 88.11l-.88 4.86q-1.255 6.928-2.497 13.86-.378 2.115-.76 4.23c-1.297 7.193-2.487 14.335-3.179 21.612l2.375.75c3.056 1.455 3.444 2.173 4.625 5.25-.164 10.357-4.08 21.236-11 29-3.473 2.416-5.329 3-9.562 3-4.12-1.198-5.795-2.658-8.438-6-2.975-8.523-.99-19.457.063-28.25l.4-3.352c9.302-73.84 26.296-147.6 42.69-220.144 2.344-10.379 4.56-20.786 6.784-31.192l.601-2.805 1.677-7.847.504-2.359c.783-3.679 1.555-7.36 2.281-11.051l-2-1-1 3c-2.047 1.473-2.047 1.473-4.75 3.063-4.925 3.025-9.463 6.339-14.007 9.906-4.317 3.366-8.749 6.53-13.243 9.656-7.793 5.43-15.35 11.143-22.87 16.944-7.111 5.476-7.111 5.476-10.618 7.775-2.551 1.56-2.551 1.56-4.512 3.656a167 167 0 0 1-3.812 2.5c-4.388 2.893-8.535 6.03-12.679 9.26-4.182 3.247-8.423 6.404-12.696 9.532a1449 1449 0 0 0-7.372 5.45c-2.6 1.926-5.213 3.796-7.914 5.578-2.539 1.764-4.627 3.244-6.527 5.68-.604 3.582.107 6.52 1 10 4.074 27.498-4.538 55.818-15.147 80.975a444 444 0 0 0-2.427 5.912c-12.9 31.287-32.631 61.254-56.102 85.613a186 186 0 0 0-6.758 7.441c-3.613 4.163-7.417 8.102-11.316 11.996l-2.124 2.122c-4.62 4.567-9.329 8.801-14.438 12.816-2.477 1.958-4.877 3.987-7.266 6.05-5.555 4.788-11.259 9.341-17.11 13.763-.695.53-1.39 1.059-2.108 1.604C256.244 819 256.244 819 254 819l-1 2c-26.804 19.001-68.941 43.433-103.39 38.66-5.394-1.364-10.51-3.462-15.61-5.66v-2h-2c-5.612-6.588-8.612-13.807-8.305-22.566 2.1-16.767 10.643-31.252 19.305-45.434l1.922-3.184C148.509 775 148.509 775 150 773h2l.793-1.691c3.406-6.514 7.9-12.255 13.207-17.309 6.109-6.63 12.105-13.383 17.918-20.273l1.894-2.227 1.708-2.031C189 728 189 728 191 728v-2h2l.623-1.608c1.95-3.388 4.656-5.935 7.416-8.662l1.817-1.815q1.905-1.902 3.818-3.795a1703 1703 0 0 0 5.767-5.747c5.45-5.434 10.89-10.825 16.757-15.814 4.26-3.686 8.272-7.662 12.33-11.569l2.058-1.955 1.845-1.77C247 672 247 672 249 672v-2c1.398-1.41 1.398-1.41 3.375-3.062 3.2-2.717 6.338-5.481 9.438-8.313 4.38-3.958 8.905-7.7 13.5-11.406 3.41-2.816 6.668-5.779 9.91-8.785C287 637 287 637 289 637v-2c2.03-1.68 4.065-3.258 6.188-4.812 4.277-3.153 8.082-6.378 11.812-10.188a206 206 0 0 1 4.813-4l2.906-2.352 1.586-1.278q2.744-2.221 5.476-4.456c6.94-5.665 13.909-11.287 20.973-16.796 3.152-2.46 6.28-4.947 9.383-7.47l2.08-1.685a835 835 0 0 0 3.986-3.256C362.778 575 362.778 575 365 575c1.51-3.386 1.51-3.386 2-7h-2a367 367 0 0 1-3-5c-2.313-2.665-4.72-5.222-7.137-7.793C353 553 353 553 353 551l-1.723-.777c-2.525-1.356-4.515-2.95-6.714-4.785-8.346-6.763-17.013-12.84-26.536-17.833a264 264 0 0 1-7.023-3.867l-2.13-1.213a1345 1345 0 0 1-4.13-2.367c-3.166-1.8-6.288-3.43-9.666-4.803C292 514 292 514 291 512a395 395 0 0 0-6-2c-2.91-1.301-5.762-2.722-8.625-4.125a289 289 0 0 0-20.812-9.062c-6.378-2.488-12.487-5.185-18.57-8.336-5.631-2.779-11.483-5.05-17.305-7.392a2342 2342 0 0 1-9.254-3.765c-12.53-5.118-25.064-10.221-37.65-15.196-19.04-7.526-37.9-15.094-55.784-25.124l-2.969-1.633L112 434v-2l-1.672-.687c-3.015-1.7-5.14-3.861-7.578-6.313l-2.703-2.687C98 420 98 420 98 418h-2c-12.09-20.62-15.988-38.823-10.281-62.3C90.606 337.241 99.614 320.29 111 305q2.77-4.076 5.52-8.164L118 295h2l.734-1.668c2.674-4.927 6.678-9.05 10.266-13.332l1.645-2.027c3.19-3.876 6.695-7.09 10.527-10.328 2.228-2.005 3.977-4.296 5.828-6.645h2v-2c1.258-1.27 1.258-1.27 3.125-2.812a207 207 0 0 0 8.453-7.54l1.894-1.785a931 931 0 0 0 3.778-3.595C172.78 239 172.78 239 175 239v-2c1.66-1.523 1.66-1.523 4.063-3.375l2.777-2.164 1.538-1.192a393 393 0 0 0 5.063-4.042A624 624 0 0 1 238 190l1.87-1.234C257.125 177.403 274.816 166.802 293 157l2.57-1.39c24.072-12.944 48.716-24.325 74.43-33.61l2.504-.909C404.587 109.58 452.414 94.957 482 119m152 29c-1.498 3.371-2 5.204-2 9h-2c-7.571 16.418-14.37 32.804-20 50q-.855 2.558-1.715 5.113-1.821 5.415-3.605 10.841a351 351 0 0 1-1.507 4.426l-.83 2.405-.763 2.184c-.776 2.717-.796 5.227-.58 8.031l2-1 1-3.5 1-3.5 2-1a149 149 0 0 0 3.313-7.375q.94-2.204 1.882-4.406l.931-2.188c1.143-2.656 2.347-5.282 3.562-7.906C630.349 179.629 630.349 179.629 636 148zm-36 96 1 3ZM366.688 597.813l-1.893 1.501c-4.74 3.783-9.369 7.686-13.972 11.633-3.643 3.105-7.377 6.047-11.198 8.928-5.672 4.28-11.025 8.87-16.357 13.565-3.308 2.902-6.635 5.667-10.205 8.247L310 644v2l-1.61.676c-3.214 1.78-5.874 4.118-8.64 6.511l-1.755 1.504A1420 1420 0 0 0 293 659l-2.277 1.965c-7.217 6.272-14.282 12.72-21.348 19.16-3.078 2.803-6.168 5.585-9.312 8.313-7.385 6.427-14.625 13.021-21.481 20.011-2.212 2.168-4.572 4.14-6.937 6.137A77 77 0 0 0 225 721v2l-1.75.75c-2.58 1.433-4.311 3.034-6.25 5.25v2l-3 1c-1.442 1.423-1.442 1.423-2.875 3.25-3.304 3.913-6.845 7.484-10.5 11.063-4.77 4.705-9.148 9.548-13.312 14.808-2.209 2.75-4.488 5.414-6.803 8.072-5.54 6.367-10.716 12.851-15.51 19.807l-1.179 1.674C149.396 810.676 149.396 810.676 145 834c2.336 3.253 4.172 4.237 8 5 21.353 1.4 42.652-9.095 61-19l1.994-1.066c23.554-12.659 44.519-28.822 64.42-46.594C282 771 282 771 285 769v-2l4-2v-2l1.75-.75c2.58-1.433 4.311-3.034 6.25-5.25v-2l1.766-.75c2.565-1.435 4.071-3.027 5.984-5.25l1.86-2.125c1.589-1.754 1.589-1.754 1.39-3.875l3-1a127 127 0 0 0 5.188-6.437q1.486-1.939 2.976-3.875l1.47-1.922c1.76-2.276 3.594-4.487 5.428-6.703C334.533 712.48 341.485 700.855 348 689l1.957-3.473C363.759 660.712 378.88 626.988 377 598c-.909-2.798-.909-2.798-2-5-3.415 0-5.742 2.75-8.312 4.813"/><path fill="#151515" d="M869 397c5.77 4.087 5.77 4.087 7 8 .34 3.744.276 6.31-1.125 9.813-2.479 2.891-4.128 3.539-7.875 4.187-3.818-.67-6.292-1.426-9.312-3.875-4.975-3.933-10.81-6.594-17.25-6.187-12.118 2.158-19.673 11.461-26.399 20.992-9.674 14.566-16.467 29.72-20.848 46.617-.941 3.615-2.04 7.151-3.215 10.696-3.91 11.832-5.386 23.308-4.976 35.757h3c1.616-1.77 1.616-1.77 3.063-4 1.535-2.25 1.535-2.25 2.937-4h2l.824-1.742c1.187-2.278 2.505-4.287 3.989-6.383l1.843-2.61a1160 1160 0 0 1 5.625-7.78 1634.503 1634.503 0 0 1 5.275-7.239l1.651-2.27 1.484-2.028c1.29-1.921 2.323-3.856 3.309-5.948h2l.785-2.172c1.281-2.982 2.815-5.404 4.653-8.078a620 620 0 0 0 8.7-13.159c3.558-5.536 7.12-11.073 10.8-16.529l1.527-2.277c2.2-2.557 4.159-3.68 7.535-3.937 3.806.409 5.542.73 8.438 3.402 3.222 5.671 2.432 10.58 1.593 16.797l-.35 2.74c-.386 2.988-.783 5.976-1.181 8.963l-.815 6.254c-2.922 22.291-6.126 44.544-9.365 66.79q-.666 4.603-1.32 9.206h3l.707-1.781c1.611-2.765 3.338-3.918 5.98-5.719 4.609-3.238 9.01-6.63 13.375-10.187 11.22-9.079 22.964-17.448 35.028-25.364 3.293-2.206 6.509-4.505 9.722-6.824 10.07-7.25 20.437-14.037 30.892-20.713 5.215-3.337 10.363-6.77 15.5-10.226 5.093-3.42 8.542-5.085 14.796-4.186 2.81 1.794 4.51 3.019 6 6 .447 3.254.643 5.806-.953 8.77-3.553 4.523-7.998 7.338-12.871 10.293-3.54 2.16-6.984 4.438-10.426 6.75l-3.867 2.59-1.952 1.307a1176 1176 0 0 1-5.626 3.731 755 755 0 0 0-21.69 14.891 663 663 0 0 1-13.66 9.429c-8.82 5.95-17.273 12.241-25.62 18.837-4.073 3.216-8.224 6.317-12.398 9.402-7.916 5.875-15.506 12.123-23.063 18.451-1.452 1.2-2.968 2.324-4.506 3.412-2.772 2.502-3.206 3.733-3.9 7.356l-.698 3.515L846 591l-.988 5.266q-1.153 6.186-2.27 12.378C830.967 673.795 817.468 738.946 797 802l-.767 2.377c-41.204 127.527-41.204 127.527-90.92 156.959-9.332 4.688-18.4 6.01-28.375 2.914-4.503-1.593-8.264-3.189-11.938-6.25v-2l-3-1c-1.812-1.937-1.812-1.937-4-5l-1.379-1.922c-20.337-30.798-15.187-72.751-8.523-106.805 8.727-42.12 26.344-81.013 48.377-117.723a505 505 0 0 0 3.88-6.609c9.784-16.843 21.16-32.718 33.16-48.042 2.343-2.996 4.664-6.01 6.985-9.024l2.418-3.133a192 192 0 0 0 4.894-6.742c2.185-2.996 4.57-5.382 7.188-8a279 279 0 0 0 5.156-6.719c2.12-2.622 4.43-4.928 6.844-7.281q2.439-2.404 4.875-4.812l2.43-2.395c2.029-2.103 3.94-4.216 5.84-6.43 4.208-4.85 8.705-9.4 13.245-13.939a1072 1072 0 0 0 4.311-4.35l2.756-2.761 2.5-2.512C805 589 805 589 807 589l.781-1.8c1.326-2.393 2.623-3.648 4.719-5.388l2.133-1.808L817 578a840 840 0 0 0 5.375-4.75l2.523-2.234c3.768-3.614 4.503-6.415 5.247-11.456l.296-1.967c.322-2.147.632-4.296.942-6.445q.33-2.247.664-4.496.696-4.717 1.376-9.437c.58-4.012 1.173-8.023 1.77-12.033q.688-4.647 1.363-9.297.324-2.216.653-4.432c1.114-7.516 2.077-14.837 1.791-22.453l-.883 1.723c-2.405 4.53-4.9 8.355-8.328 12.152-2.372 2.817-4.48 5.806-6.601 8.813-4.616 6.527-9.315 12.972-14.188 19.312l-1.543 2.055c-5.74 7.235-14.122 13.335-23.394 14.758-4.145.428-6.551-.472-10.063-2.813-4.05-3.557-6.969-7.583-10-12-3.284 3.063-5.699 6.332-8.187 10.063-12.629 18.53-29.604 39.464-52.875 43.937-8.421 0-17.977-2.755-24.481-8.32-16.72-17.84-21.497-45.473-23.965-68.871-.237-2.937-.237-2.937-2.492-4.809l-2-1-.793 1.703c-7.46 14.194-19.885 27.044-30.785 38.684-2.092 2.257-4.077 4.563-6.047 6.926-6.2 7.12-12.724 12.239-22.312 13-4.236-.09-7.3-1.432-11.063-3.313v-2l-3-1c-.914-1.855-.914-1.855-1.625-4.187l-.727-2.293c-3.403-13.226-1.494-25.406 1.8-38.352.506-1.989.986-3.984 1.462-5.98 3.88-15.59 9.71-30.251 17.18-44.45 1.34-2.561 2.625-5.15 3.91-7.738l2-4h2l.688-2.074c1.646-3.671 3.847-6.58 6.312-9.738l1.367-1.811c1.16-1.5 2.391-2.944 3.633-4.377h2v-2h2v-2c11.102-8.43 21.754-13.51 36-12 10.752 1.853 18.044 6.942 26 14l2.148 1.89c3.048 3.063 4.226 5.387 4.477 9.735-.237 3.024-.713 4.547-2.125 7.313-3.309 2.73-6.127 4.306-10.5 4.062-3.094-1.552-5.64-3.465-8-6v-2l-1.625-.75C662 444 662 444 659.25 441.938c-5.773-3.442-11.757-3.561-18.25-1.938-5.12 2.53-9.159 5.774-13 10l-1.766 1.754C605.224 473.55 593.953 511.374 593 541c6.03-4.483 10.357-10.138 15-16l2.32-2.867c3.682-4.34 3.682-4.34 6.68-9.133h2l.938-1.875L622 507h2l.814-1.74c1.22-2.323 2.596-4.317 4.163-6.42l1.77-2.39 1.878-2.512 3.824-5.153 1.861-2.503a821 821 0 0 0 6.128-8.407 558 558 0 0 1 7.375-9.937l1.644-2.16c2.489-2.867 4.13-3.74 7.918-4.09 3.878.334 5.648.845 8.625 3.312 2.377 4.505 2.546 9.142 2.938 14.125q.251 2.835.507 5.668l.27 3.044c2.217 41.047 2.217 41.047 21.226 75.886 2.793 1.733 5.104 1.717 8.305 1.226 27.25-9.393 45.484-47.683 58.442-70.886l1.168-2.092c4.635-8.472 7.923-17.087 10.832-26.284C780.552 444.71 790.036 420.918 806 405h2v-2c19.004-16.62 39.443-20.284 61-6m-47 205 1 2Zm-8.017 6.774-1.944 1.956-2.18 2.186c-.737.75-1.474 1.5-2.234 2.271l-2.21 2.213a250 250 0 0 0-11.878 12.847c-1.918 2.187-3.95 4.228-6.037 6.253a172 172 0 0 0-9.691 10.41c-2.042 2.36-4.143 4.66-6.246 6.965-4.403 4.885-8.506 9.952-12.563 15.125l-2.488 3.11c-7.5 9.396-14.553 19.09-21.512 28.89l-1.257 1.76C719.077 723.337 705.833 745.167 695 768l-1.167 2.43c-15.745 32.951-29.817 70.885-30.036 107.883l-.017 2.339q-.014 2.44-.02 4.88c-.01 2.434-.04 4.867-.072 7.3-.12 17.643 1.88 35.57 14.312 49.168 3.658 3.164 6.977 3.526 11.672 3.348C696.51 944.326 703.024 939.63 708 935v-2l1.734-.687c2.887-1.673 4.46-3.694 6.516-6.313l2.14-2.687c1.8-2.117 1.8-2.117 1.61-4.313h2c1.485-1.933 1.485-1.933 3-4.5l1.89-3.078 1.03-1.686a213 213 0 0 1 3.377-5.22C738.7 893.234 744.434 881.273 750 869c.3-.656.598-1.313.906-1.99 4.98-10.954 9.601-21.999 13.844-33.26l.895-2.37c6.863-18.228 12.81-36.712 18.355-55.38l.648-2.175c13.104-44.133 23.018-89.166 31.86-134.32.597-3.04 1.207-6.075 1.82-9.11.605-3.006 1.201-6.013 1.797-9.02l.607-3.013c.946-4.886 1.473-9.385 1.268-14.362-2.932 0-5.931 2.94-8.017 4.774"/><path fill="#707070" d="m165 246 2 1c-5.894 7.087-12.387 13.573-18.899 20.084a1784 1784 0 0 0-5.581 5.621l-3.567 3.572-1.676 1.698c-2.409 2.394-4.01 3.936-7.277 5.025 2.76-6.525 7.862-10.85 13.137-15.32 2.24-2.02 4-4.316 5.863-6.68h2v-2c1.54-1.516 1.54-1.516 3.625-3.25 3.649-3.097 7.034-6.325 10.375-9.75"/><path fill="#787878" d="M225 694c-1.342 2.984-2.827 5.079-5.133 7.392l-1.921 1.94-2.071 2.059-2.13 2.135q-2.225 2.227-4.458 4.448c-2.285 2.274-4.56 4.56-6.834 6.846q-2.163 2.162-4.328 4.32l-2.07 2.084-1.922 1.902-1.691 1.686C191 730 191 730 189 730v-2h2v-2h2l.827-1.811c1.14-2.127 2.245-3.514 3.939-5.213l1.678-1.698 1.806-1.794 1.86-1.866q1.944-1.945 3.894-3.883c1.996-1.985 3.98-3.98 5.965-5.977l3.781-3.774 1.806-1.818C222.77 694 222.77 694 225 694"/><path fill="#8C8C8C" d="m624 425 2 1a1616 1616 0 0 1-3.297 3.29 436 436 0 0 0-3.969 4.046l-2.422 2.476-2.324 2.395C612 440 612 440 610 440a56.5 56.5 0 0 1 4-7h2v-2h2v-2a125 125 0 0 1 6-4"/><path fill="#7F7F7F" d="m814 398 2 1c-8.28 9.581-8.28 9.581-11 12h-2l3-6h2v-2a159 159 0 0 1 6-5"/><path fill="#DADADA" d="M600 235c1.625 1.625 1.625 1.625 3 4-.77 3.499-1.456 5.456-4 8-1.369-4.517-.47-7.588 1-12"/><path fill="#EBEBEB" d="M765 527c1.43 2.354 2.087 3.48 1.625 6.25L766 535l-4-2c1.875-4.875 1.875-4.875 3-6"/><path fill="#C1C1C1" d="M783 513h1q.254 2.374.5 4.75l.281 2.672C785 523 785 523 785 527l-2-1z"/><path fill="#E6E6E6" d="M653 499c2 2 2 2 2.125 5.125L655 507l-5-4z"/><path fill="#BDBDBD" d="M841 484h1l-1 13h-1a312 312 0 0 1-.625-4.812l-.352-2.708C839 487 839 487 841 484"/><path fill="#D2D2D2" d="M637 143h1l-1 9-2-1 1-3-2-1a125 125 0 0 1 3-4"/></svg>